<svg xmlns="http://www.w3.org/2000/svg" xmlns:xlink="http://www.w3.org/1999/xlink" width="500" zoomAndPan="magnify" viewBox="0 0 375 374.999991" height="500" preserveAspectRatio="xMidYMid meet" version="1.0"><defs><g/><clipPath id="a3196d6936"><path d="M 105.089844 135 L 188 135 L 188 208.226562 L 105.089844 208.226562 Z M 105.089844 135 " clip-rule="nonzero"/></clipPath><clipPath id="0a37572fd7"><path d="M 187 97.226562 L 270 97.226562 L 270 170 L 187 170 Z M 187 97.226562 " clip-rule="nonzero"/></clipPath></defs><rect x="-37.5" width="450" fill="#ffffff" y="-37.499999" height="449.999989" fill-opacity="1"/><rect x="-37.5" width="450" fill="#0f1120" y="-37.499999" height="449.999989" fill-opacity="1"/><g clip-path="url(#a3196d6936)"><path fill="#0652e9" d="M 160.585938 186.828125 L 160.585938 196.859375 L 115.15625 175.753906 L 115.15625 167.613281 L 160.585938 146.507812 L 160.585938 156.539062 L 126.226562 171.589844 L 126.226562 171.777344 Z M 187.566406 135.359375 L 111.59375 135.359375 C 108.003906 135.359375 105.097656 138.265625 105.097656 141.855469 L 105.097656 201.511719 C 105.097656 205.097656 108.003906 208.007812 111.59375 208.007812 L 166.476562 208.007812 L 187.566406 135.359375 " fill-opacity="1" fill-rule="nonzero"/></g><g clip-path="url(#0a37572fd7)"><path fill="#62e1e9" d="M 259.855469 137.941406 L 214.425781 158.761719 L 214.425781 148.726562 L 249.539062 133.679688 L 249.539062 133.492188 L 214.425781 118.441406 L 214.425781 108.410156 L 259.855469 129.230469 Z M 208.660156 97.261719 L 187.566406 169.910156 L 263.417969 169.910156 C 267.007812 169.910156 269.914062 167.003906 269.914062 163.414062 L 269.914062 103.757812 C 269.914062 100.167969 267.007812 97.261719 263.417969 97.261719 L 208.660156 97.261719 " fill-opacity="1" fill-rule="nonzero"/></g><g fill="#ffffff" fill-opacity="1"><g transform="translate(93.813046, 236.42096)"><g><path d="M 8.609375 -12.75 L 8.609375 -3.265625 C 8.609375 -2.222656 8.253906 -1.390625 7.546875 -0.765625 C 6.847656 -0.140625 5.847656 0.171875 4.546875 0.171875 C 3.390625 0.171875 2.46875 -0.0703125 1.78125 -0.5625 C 1.101562 -1.0625 0.691406 -1.742188 0.546875 -2.609375 L 3.3125 -3.421875 C 3.375 -3.097656 3.515625 -2.828125 3.734375 -2.609375 C 3.960938 -2.398438 4.234375 -2.296875 4.546875 -2.296875 C 4.898438 -2.296875 5.195312 -2.421875 5.4375 -2.671875 C 5.675781 -2.929688 5.796875 -3.253906 5.796875 -3.640625 L 5.796875 -10.265625 L 1.609375 -10.265625 L 1.609375 -12.75 Z M 8.609375 -12.75 "/></g></g></g><g fill="#ffffff" fill-opacity="1"><g transform="translate(104.225377, 236.42096)"><g><path d="M 7.328125 0.171875 C 6.421875 0.171875 5.570312 0.00390625 4.78125 -0.328125 C 4 -0.671875 3.304688 -1.144531 2.703125 -1.75 C 2.109375 -2.351562 1.640625 -3.046875 1.296875 -3.828125 C 0.953125 -4.617188 0.78125 -5.46875 0.78125 -6.375 C 0.78125 -7.28125 0.953125 -8.125 1.296875 -8.90625 C 1.640625 -9.695312 2.109375 -10.394531 2.703125 -11 C 3.304688 -11.601562 4 -12.070312 4.78125 -12.40625 C 5.570312 -12.75 6.421875 -12.921875 7.328125 -12.921875 C 8.234375 -12.921875 9.082031 -12.75 9.875 -12.40625 C 10.675781 -12.070312 11.375 -11.601562 11.96875 -11 C 12.5625 -10.394531 13.023438 -9.695312 13.359375 -8.90625 C 13.703125 -8.125 13.875 -7.28125 13.875 -6.375 C 13.875 -5.46875 13.703125 -4.617188 13.359375 -3.828125 C 13.023438 -3.046875 12.5625 -2.351562 11.96875 -1.75 C 11.375 -1.144531 10.675781 -0.671875 9.875 -0.328125 C 9.082031 0.00390625 8.234375 0.171875 7.328125 0.171875 Z M 7.328125 -2.578125 C 8.054688 -2.578125 8.707031 -2.738281 9.28125 -3.0625 C 9.851562 -3.394531 10.304688 -3.847656 10.640625 -4.421875 C 10.972656 -5.003906 11.140625 -5.65625 11.140625 -6.375 C 11.140625 -7.09375 10.972656 -7.738281 10.640625 -8.3125 C 10.304688 -8.894531 9.851562 -9.347656 9.28125 -9.671875 C 8.707031 -10.003906 8.054688 -10.171875 7.328125 -10.171875 C 6.617188 -10.171875 5.976562 -10.003906 5.40625 -9.671875 C 4.832031 -9.347656 4.378906 -8.894531 4.046875 -8.3125 C 3.710938 -7.738281 3.546875 -7.09375 3.546875 -6.375 C 3.546875 -5.65625 3.710938 -5.003906 4.046875 -4.421875 C 4.378906 -3.847656 4.832031 -3.394531 5.40625 -3.0625 C 5.976562 -2.738281 6.617188 -2.578125 7.328125 -2.578125 Z M 7.328125 -2.578125 "/></g></g></g><g fill="#ffffff" fill-opacity="1"><g transform="translate(119.650402, 236.42096)"><g><path d="M 9.046875 0 L 8.265625 -2.40625 L 3.5 -2.40625 L 2.71875 0 L -0.28125 0 L 4.3125 -12.75 L 7.453125 -12.75 L 12.046875 0 Z M 4.25 -4.734375 L 7.515625 -4.734375 L 5.890625 -9.796875 Z M 4.25 -4.734375 "/></g></g></g><g fill="#ffffff" fill-opacity="1"><g transform="translate(132.165514, 236.42096)"><g><path d="M 14.359375 -2.015625 L 14.359375 0 L 8.8125 0 C 8.320312 0.113281 7.828125 0.171875 7.328125 0.171875 C 6.421875 0.171875 5.570312 0.00390625 4.78125 -0.328125 C 4 -0.671875 3.304688 -1.144531 2.703125 -1.75 C 2.109375 -2.351562 1.640625 -3.046875 1.296875 -3.828125 C 0.953125 -4.617188 0.78125 -5.46875 0.78125 -6.375 C 0.78125 -7.28125 0.953125 -8.125 1.296875 -8.90625 C 1.640625 -9.695312 2.109375 -10.394531 2.703125 -11 C 3.304688 -11.601562 4 -12.070312 4.78125 -12.40625 C 5.570312 -12.75 6.421875 -12.921875 7.328125 -12.921875 C 8.234375 -12.921875 9.082031 -12.75 9.875 -12.40625 C 10.675781 -12.070312 11.375 -11.601562 11.96875 -11 C 12.5625 -10.394531 13.023438 -9.695312 13.359375 -8.90625 C 13.703125 -8.125 13.875 -7.28125 13.875 -6.375 C 13.875 -5.351562 13.65625 -4.398438 13.21875 -3.515625 C 12.789062 -2.640625 12.21875 -1.90625 11.5 -1.3125 L 13.09375 -2.015625 Z M 3.546875 -6.375 C 3.546875 -5.65625 3.710938 -5.003906 4.046875 -4.421875 C 4.378906 -3.847656 4.832031 -3.394531 5.40625 -3.0625 C 5.976562 -2.738281 6.617188 -2.578125 7.328125 -2.578125 C 8.054688 -2.578125 8.707031 -2.738281 9.28125 -3.0625 C 9.851562 -3.394531 10.304688 -3.847656 10.640625 -4.421875 C 10.972656 -5.003906 11.140625 -5.65625 11.140625 -6.375 C 11.140625 -7.09375 10.972656 -7.738281 10.640625 -8.3125 C 10.304688 -8.894531 9.851562 -9.347656 9.28125 -9.671875 C 8.707031 -10.003906 8.054688 -10.171875 7.328125 -10.171875 C 6.617188 -10.171875 5.976562 -10.003906 5.40625 -9.671875 C 4.832031 -9.347656 4.378906 -8.894531 4.046875 -8.3125 C 3.710938 -7.738281 3.546875 -7.09375 3.546875 -6.375 Z M 3.546875 -6.375 "/></g></g></g><g fill="#ffffff" fill-opacity="1"><g transform="translate(147.611781, 236.42096)"><g><path d="M 6.484375 0.171875 C 5.492188 0.171875 4.597656 -0.015625 3.796875 -0.390625 C 2.992188 -0.765625 2.359375 -1.273438 1.890625 -1.921875 C 1.421875 -2.566406 1.1875 -3.285156 1.1875 -4.078125 L 1.1875 -12.75 L 4 -12.75 L 4 -4.609375 C 4 -3.960938 4.238281 -3.414062 4.71875 -2.96875 C 5.195312 -2.53125 5.785156 -2.3125 6.484375 -2.3125 C 7.191406 -2.3125 7.785156 -2.53125 8.265625 -2.96875 C 8.742188 -3.414062 8.984375 -3.960938 8.984375 -4.609375 L 8.984375 -12.75 L 11.796875 -12.75 L 11.796875 -4.078125 C 11.796875 -3.285156 11.5625 -2.566406 11.09375 -1.921875 C 10.625 -1.273438 9.988281 -0.765625 9.1875 -0.390625 C 8.382812 -0.015625 7.484375 0.171875 6.484375 0.171875 Z M 6.484375 0.171875 "/></g></g></g><g fill="#ffffff" fill-opacity="1"><g transform="translate(161.33759, 236.42096)"><g><path d="M 1.359375 0 L 1.359375 -12.75 L 4.171875 -12.75 L 4.171875 0 Z M 1.359375 0 "/></g></g></g><g fill="#ffffff" fill-opacity="1"><g transform="translate(167.586836, 236.42096)"><g><path d="M 10.40625 -12.75 L 13.203125 -12.75 L 13.203125 0 L 10.3125 0 L 4.0625 -8.453125 L 4.0625 0 L 1.25 0 L 1.25 -12.75 L 4.140625 -12.75 L 10.40625 -4.3125 Z M 10.40625 -12.75 "/></g></g></g><g fill="#ffffff" fill-opacity="1"><g transform="translate(182.799461, 236.42096)"><g/></g></g><g fill="#ffffff" fill-opacity="1"><g transform="translate(188.645142, 236.42096)"><g><path d="M 1.359375 0 L 1.359375 -12.75 L 4.171875 -12.75 L 4.171875 0 Z M 1.359375 0 "/></g></g></g><g fill="#ffffff" fill-opacity="1"><g transform="translate(194.894389, 236.42096)"><g><path d="M 7.90625 -5.25 L 11.46875 0 L 8.328125 0 L 5.1875 -4.9375 L 4.0625 -4.9375 L 4.0625 0 L 1.25 0 L 1.25 -12.75 L 6.671875 -12.75 C 7.410156 -12.75 8.0625 -12.570312 8.625 -12.21875 C 9.195312 -11.875 9.644531 -11.40625 9.96875 -10.8125 C 10.300781 -10.21875 10.46875 -9.5625 10.46875 -8.84375 C 10.46875 -7.976562 10.226562 -7.21875 9.75 -6.5625 C 9.269531 -5.914062 8.65625 -5.476562 7.90625 -5.25 Z M 6.25 -7.25 C 6.695312 -7.25 7.066406 -7.390625 7.359375 -7.671875 C 7.648438 -7.953125 7.796875 -8.3125 7.796875 -8.75 C 7.796875 -9.1875 7.648438 -9.546875 7.359375 -9.828125 C 7.066406 -10.117188 6.695312 -10.265625 6.25 -10.265625 L 4.0625 -10.265625 L 4.0625 -7.25 Z M 6.25 -7.25 "/></g></g></g><g fill="#ffffff" fill-opacity="1"><g transform="translate(207.005933, 236.42096)"><g><path d="M 1.359375 0 L 1.359375 -12.75 L 4.171875 -12.75 L 4.171875 0 Z M 1.359375 0 "/></g></g></g><g fill="#ffffff" fill-opacity="1"><g transform="translate(213.255174, 236.42096)"><g><path d="M 7.328125 -6.984375 L 13.890625 -6.984375 L 13.890625 -6.375 C 13.890625 -5.46875 13.71875 -4.617188 13.375 -3.828125 C 13.039062 -3.046875 12.570312 -2.351562 11.96875 -1.75 C 11.375 -1.144531 10.679688 -0.671875 9.890625 -0.328125 C 9.109375 0.00390625 8.265625 0.171875 7.359375 0.171875 C 6.453125 0.171875 5.597656 0.00390625 4.796875 -0.328125 C 4.003906 -0.671875 3.3125 -1.144531 2.71875 -1.75 C 2.125 -2.351562 1.65625 -3.046875 1.3125 -3.828125 C 0.976562 -4.617188 0.8125 -5.46875 0.8125 -6.375 C 0.8125 -7.28125 0.976562 -8.125 1.3125 -8.90625 C 1.65625 -9.695312 2.125 -10.394531 2.71875 -11 C 3.3125 -11.601562 4.003906 -12.070312 4.796875 -12.40625 C 5.597656 -12.75 6.453125 -12.921875 7.359375 -12.921875 C 8.617188 -12.921875 9.757812 -12.597656 10.78125 -11.953125 C 11.8125 -11.304688 12.601562 -10.457031 13.15625 -9.40625 L 10.734375 -8.15625 C 10.421875 -8.769531 9.96875 -9.257812 9.375 -9.625 C 8.78125 -9.988281 8.109375 -10.171875 7.359375 -10.171875 C 6.648438 -10.171875 6.003906 -10.003906 5.421875 -9.671875 C 4.835938 -9.347656 4.378906 -8.894531 4.046875 -8.3125 C 3.710938 -7.738281 3.546875 -7.09375 3.546875 -6.375 C 3.546875 -5.65625 3.710938 -5.003906 4.046875 -4.421875 C 4.378906 -3.847656 4.835938 -3.394531 5.421875 -3.0625 C 6.003906 -2.738281 6.648438 -2.578125 7.359375 -2.578125 C 8.148438 -2.578125 8.851562 -2.78125 9.46875 -3.1875 C 10.082031 -3.59375 10.539062 -4.128906 10.84375 -4.796875 L 7.328125 -4.796875 Z M 7.328125 -6.984375 "/></g></g></g><g fill="#ffffff" fill-opacity="1"><g transform="translate(228.701435, 236.42096)"><g><path d="M 7.328125 0.171875 C 6.421875 0.171875 5.570312 0.00390625 4.78125 -0.328125 C 4 -0.671875 3.304688 -1.144531 2.703125 -1.75 C 2.109375 -2.351562 1.640625 -3.046875 1.296875 -3.828125 C 0.953125 -4.617188 0.78125 -5.46875 0.78125 -6.375 C 0.78125 -7.28125 0.953125 -8.125 1.296875 -8.90625 C 1.640625 -9.695312 2.109375 -10.394531 2.703125 -11 C 3.304688 -11.601562 4 -12.070312 4.78125 -12.40625 C 5.570312 -12.75 6.421875 -12.921875 7.328125 -12.921875 C 8.234375 -12.921875 9.082031 -12.75 9.875 -12.40625 C 10.675781 -12.070312 11.375 -11.601562 11.96875 -11 C 12.5625 -10.394531 13.023438 -9.695312 13.359375 -8.90625 C 13.703125 -8.125 13.875 -7.28125 13.875 -6.375 C 13.875 -5.46875 13.703125 -4.617188 13.359375 -3.828125 C 13.023438 -3.046875 12.5625 -2.351562 11.96875 -1.75 C 11.375 -1.144531 10.675781 -0.671875 9.875 -0.328125 C 9.082031 0.00390625 8.234375 0.171875 7.328125 0.171875 Z M 7.328125 -2.578125 C 8.054688 -2.578125 8.707031 -2.738281 9.28125 -3.0625 C 9.851562 -3.394531 10.304688 -3.847656 10.640625 -4.421875 C 10.972656 -5.003906 11.140625 -5.65625 11.140625 -6.375 C 11.140625 -7.09375 10.972656 -7.738281 10.640625 -8.3125 C 10.304688 -8.894531 9.851562 -9.347656 9.28125 -9.671875 C 8.707031 -10.003906 8.054688 -10.171875 7.328125 -10.171875 C 6.617188 -10.171875 5.976562 -10.003906 5.40625 -9.671875 C 4.832031 -9.347656 4.378906 -8.894531 4.046875 -8.3125 C 3.710938 -7.738281 3.546875 -7.09375 3.546875 -6.375 C 3.546875 -5.65625 3.710938 -5.003906 4.046875 -4.421875 C 4.378906 -3.847656 4.832031 -3.394531 5.40625 -3.0625 C 5.976562 -2.738281 6.617188 -2.578125 7.328125 -2.578125 Z M 7.328125 -2.578125 "/></g></g></g><g fill="#ffffff" fill-opacity="1"><g transform="translate(244.126456, 236.42096)"><g><path d="M 11.453125 -12.75 L 7.015625 -6.015625 L 7.015625 0 L 4.203125 0 L 4.203125 -6 L -0.28125 -12.75 L 2.890625 -12.75 L 5.609375 -8.4375 L 8.328125 -12.75 Z M 11.453125 -12.75 "/></g></g></g><g fill="#ffffff" fill-opacity="1"><g transform="translate(256.068079, 236.42096)"><g><path d="M 9.03125 -10.28125 L 4.171875 -10.28125 L 4.171875 -7.609375 L 8.328125 -7.609375 L 8.328125 -5.140625 L 4.171875 -5.140625 L 4.171875 -2.46875 L 9.03125 -2.46875 L 9.03125 0 L 1.359375 0 L 1.359375 -12.75 L 9.03125 -12.75 Z M 9.03125 -10.28125 "/></g></g></g><g fill="#ffffff" fill-opacity="1"><g transform="translate(266.714047, 236.42096)"><g><path d="M 10.40625 -12.75 L 13.203125 -12.75 L 13.203125 0 L 10.3125 0 L 4.0625 -8.453125 L 4.0625 0 L 1.25 0 L 1.25 -12.75 L 4.140625 -12.75 L 10.40625 -4.3125 Z M 10.40625 -12.75 "/></g></g></g></svg>